<?xml version="1.0" encoding="UTF-8" standalone="no"?>
<!-- Created with Inkscape (http://www.inkscape.org/) -->

<svg
   version="1.1"
   id="svg39"
   xml:space="preserve"
   width="693.76666"
   height="453.54123"
   viewBox="0 0 693.76666 453.54123"
   sodipodi:docname="all_logos.svg"
   inkscape:version="1.1 (c4e8f9ed74, 2021-05-24)"
   xmlns:inkscape="http://www.inkscape.org/namespaces/inkscape"
   xmlns:sodipodi="http://sodipodi.sourceforge.net/DTD/sodipodi-0.dtd"
   xmlns="http://www.w3.org/2000/svg"
   xmlns:svg="http://www.w3.org/2000/svg"><defs
     id="defs43"><clipPath
       clipPathUnits="userSpaceOnUse"
       id="clipPath55"><path
         d="M 0,271.375 H 521 V -0.844 H 0 Z"
         id="path53" /></clipPath><clipPath
       clipPathUnits="userSpaceOnUse"
       id="clipPath65"><path
         d="M 0,0 H 521 V 167 H 0 Z"
         id="path63" /></clipPath><clipPath
       clipPathUnits="userSpaceOnUse"
       id="clipPath121"><path
         d="M 210.941,340.156 H 520.324 V 188.558 H 210.941 Z"
         id="path119" /></clipPath></defs><sodipodi:namedview
     id="namedview41"
     pagecolor="#ffffff"
     bordercolor="#666666"
     borderopacity="1.0"
     inkscape:pageshadow="2"
     inkscape:pageopacity="0.0"
     inkscape:pagecheckerboard="0"
     showgrid="false"
     inkscape:zoom="0.51759352"
     inkscape:cx="43.470405"
     inkscape:cy="-1710.8019"
     inkscape:window-width="2556"
     inkscape:window-height="1396"
     inkscape:window-x="0"
     inkscape:window-y="20"
     inkscape:window-maximized="1"
     inkscape:current-layer="g45" /><g
     id="g45"
     inkscape:groupmode="layer"
     inkscape:label="all_logos"
     transform="matrix(1.3333333,0,0,-1.3333333,0,453.54122)"><g
       id="g47" /><g
       id="g49"
       transform="translate(-513.39046,1131.6167)"><g
         id="g51"
         clip-path="url(#clipPath55)"><g
           id="g57"
           transform="translate(0,-0.844086)"><g
             id="g59"><g
               id="g61"
               clip-path="url(#clipPath65)"><g
                 id="g67"><path
                   d="M 292.059,114.758 260.164,166.523 195.195,61.098 h 34.852 c 10.078,26.972 33.375,47.48 62.012,53.66"
                   style="fill:#15569c;fill-opacity:1;fill-rule:nonzero;stroke:none"
                   id="path69" /><path
                   d="m 237.246,61.098 h 87.879 l -29.316,47.578 C 269.195,103.77 247.273,85.516 237.246,61.098"
                   style="fill:#15569c;fill-opacity:1;fill-rule:nonzero;stroke:none"
                   id="path71" /><path
                   d="m 20.25,32.23 h -6.164 v -0.535 c 0.652,-0.761 0.75,-1.261 -0.652,-4.355 L 3.262,6.227 C 2.055,3.746 1.207,3.098 0,2.863 V 2.332 H 8.379 V 2.863 C 6.586,3.398 7.043,5.387 7.891,7.219 l 1.531,3.246 H 25.27 l 1.828,-3.36 C 28.141,5.195 28.695,3.477 26.801,2.863 V 2.332 h 10.597 v 0.531 c -1.433,0.27 -2.414,2.258 -3.226,3.785 z m -9.098,-18.214 5.739,11.796 6.453,-11.796 z"
                   style="fill:#15569c;fill-opacity:1;fill-rule:nonzero;stroke:none"
                   id="path73" /><path
                   d="M 58.125,8.137 C 57.309,7.371 54.668,6.039 51.473,6.152 c -5.606,0.192 -8.836,6.45 -8.836,12.141 0,5.992 4.89,10.461 10.207,10.269 3.164,-0.152 7.011,-2.367 8.215,-6.296 h 0.457 l 1.433,6.984 c -5.281,4.43 -14.508,3.629 -17.898,2.332 -3.75,-1.453 -8.215,-5.27 -9.129,-10.695 -0.684,-3.93 0.324,-9.852 4.207,-13.782 C 46.977,0.234 54.57,1.57 59.398,3.477 60.895,4.09 61.91,4.66 63.148,5.309 l -0.847,6.261 c 0,0 -3.067,-2.824 -4.176,-3.433"
                   style="fill:#15569c;fill-opacity:1;fill-rule:nonzero;stroke:none"
                   id="path75" /><path
                   d="M 83.723,32.23 H 77.562 V 31.695 C 78.215,30.934 78.309,30.434 76.91,27.34 L 66.738,6.227 C 65.531,3.746 64.684,3.098 63.477,2.863 V 2.332 h 8.378 V 2.863 C 70.062,3.398 70.52,5.387 71.367,7.219 l 1.531,3.246 H 88.746 L 90.57,7.105 C 91.613,5.195 92.168,3.477 90.277,2.863 V 2.332 h 10.598 v 0.531 c -1.434,0.27 -2.414,2.258 -3.227,3.785 z M 74.629,14.016 80.363,25.812 86.82,14.016 Z"
                   style="fill:#15569c;fill-opacity:1;fill-rule:nonzero;stroke:none"
                   id="path77" /><path
                   d="m 109.84,6.457 v 21.648 h 4.305 c 3.554,0 6.847,-0.496 9.261,-4.734 1.758,-3.094 1.789,-8.898 0.032,-12.371 -2.446,-4.734 -6.586,-4.543 -10.11,-4.543 z m -7.793,25.773 v -0.535 c 1.566,-1.3 2.055,-2.597 2.055,-4.39 V 7.258 c 0,-1.793 -0.457,-3.055 -2.055,-4.391 V 2.332 h 14.281 c 4.305,0 9.848,1.106 12.977,7.18 2.445,4.695 2.086,11.109 0.226,14.968 -2.929,6.106 -8.539,7.75 -12.972,7.75 z"
                   style="fill:#15569c;fill-opacity:1;fill-rule:nonzero;stroke:none"
                   id="path79" /><path
                   d="M 136.297,27.305 V 7.258 c 0,-1.797 -0.426,-3.055 -1.988,-4.395 V 2.332 h 16.527 c 1.828,0 2.707,0.191 3.816,-1.488 h 0.391 l 2.512,6.183 -0.196,0.305 c -0.683,-0.305 -1.988,-0.875 -3.39,-0.875 H 142 v 10.078 h 6.23 c 1.793,0 2.805,0.192 3.813,-1.449 h 0.391 l 2.218,5.726 -0.195,0.305 c -0.848,-0.344 -1.336,-0.383 -2.086,-0.383 H 142 v 7.371 h 7.859 c 1.793,0 2.641,0.192 3.817,-1.449 h 0.39 l 2.219,5.649 -0.199,0.343 c -0.848,-0.304 -1.434,-0.418 -2.117,-0.418 h -19.66 v -0.535 c 1.562,-1.336 1.988,-2.597 1.988,-4.39"
                   style="fill:#15569c;fill-opacity:1;fill-rule:nonzero;stroke:none"
                   id="path81" /><path
                   d="m 200.711,7.219 -2.414,20.008 c -0.262,2.214 0.164,3.363 1.762,4.468 v 0.535 h -7.434 L 181.117,11.688 169.41,32.23 h -7.305 v -0.535 c 1.598,-1.105 1.922,-2.254 1.727,-4.468 L 162.43,7.258 C 162.203,5.121 162.039,3.859 160.379,2.863 V 2.332 h 7.629 v 0.531 c -1.891,0.77 -2.184,2.106 -2.055,4.395 l 1.567,16.914 12.421,-21.84 h 0.391 l 12.781,21.766 2.086,-16.879 c 0.262,-1.871 0.067,-3.094 -1.566,-4.356 V 2.332 h 9.816 v 0.531 c -1.629,1.34 -2.476,2.258 -2.738,4.356"
                   style="fill:#15569c;fill-opacity:1;fill-rule:nonzero;stroke:none"
                   id="path83" /><path
                   d="m 240.148,32.23 h -10.824 v -0.535 c 1.824,-0.383 1.141,-2.863 -0.031,-4.047 l -7.824,-8.668 -7.696,8.668 c -1.695,1.793 -1.828,3.664 -0.035,4.047 v 0.535 h -11.734 v -0.535 c 1.074,-0.457 2.082,-1.375 3.324,-2.75 L 218.012,14.629 V 7.258 c 0,-1.797 -0.426,-3.055 -2.055,-4.395 V 2.332 h 9.813 v 0.531 c -1.692,1.379 -2.055,2.598 -2.055,4.395 v 7.676 l 12.066,13.55 c 1.824,2.106 3.391,2.828 4.367,3.211 z"
                   style="fill:#15569c;fill-opacity:1;fill-rule:nonzero;stroke:none"
                   id="path85" /><path
                   d="m 246.965,18.062 c -0.426,-8.437 6.258,-15.656 14.898,-16.113 8.645,-0.418 16.012,6.188 16.434,14.551 0.426,8.438 -6.258,15.652 -14.867,16.109 -8.641,0.422 -16.043,-6.183 -16.465,-14.547 m 6.129,-0.761 c 0,6.261 4.172,11.375 9.359,11.375 5.215,0 9.453,-5 9.453,-11.301 0,-6.297 -4.172,-11.492 -9.355,-11.492 -5.219,0 -9.457,5.117 -9.457,11.418"
                   style="fill:#15569c;fill-opacity:1;fill-rule:nonzero;stroke:none"
                   id="path87" /><path
                   d="m 301.848,32.23 h -19.692 v -0.535 c 1.563,-1.297 2.055,-2.597 2.055,-4.39 V 7.297 c 0,-1.758 -0.43,-3.094 -2.055,-4.434 V 2.332 h 9.778 v 0.531 c -1.629,1.34 -2.055,2.676 -2.055,4.434 v 9.238 h 6.23 c 1.793,0 2.606,0.192 3.813,-1.449 h 0.394 l 2.219,5.726 -0.199,0.305 c -0.813,-0.226 -1.367,-0.383 -2.086,-0.383 h -10.371 v 7.371 h 7.859 c 1.797,0 2.61,0.192 3.817,-1.449 h 0.39 l 2.219,5.649 -0.195,0.343 c -0.817,-0.265 -1.434,-0.418 -2.121,-0.418"
                   style="fill:#15569c;fill-opacity:1;fill-rule:nonzero;stroke:none"
                   id="path89" /><path
                   d="m 336.105,32.23 h -19.691 v -0.535 c 1.566,-1.297 2.051,-2.597 2.051,-4.39 V 7.297 c 0,-1.758 -0.422,-3.094 -2.051,-4.434 V 2.332 h 9.781 v 0.531 c -1.633,1.34 -2.054,2.676 -2.054,4.434 v 9.238 h 6.226 c 1.793,0 2.61,0.192 3.817,-1.449 h 0.386 l 2.219,5.726 -0.191,0.305 c -0.821,-0.226 -1.371,-0.383 -2.09,-0.383 h -10.367 v 7.371 h 7.855 c 1.793,0 2.609,0.192 3.816,-1.449 h 0.395 l 2.211,5.649 -0.191,0.343 c -0.817,-0.265 -1.438,-0.418 -2.122,-0.418"
                   style="fill:#15569c;fill-opacity:1;fill-rule:nonzero;stroke:none"
                   id="path91" /><path
                   d="m 349.641,7.258 v 20.047 c 0,1.832 0.453,3.09 2.05,4.39 v 0.535 h -9.781 v -0.535 c 1.567,-1.3 2.055,-2.597 2.055,-4.39 V 7.258 c 0,-1.793 -0.453,-3.055 -2.055,-4.391 V 2.332 h 9.781 v 0.535 c -1.625,1.336 -2.05,2.598 -2.05,4.391"
                   style="fill:#15569c;fill-opacity:1;fill-rule:nonzero;stroke:none"
                   id="path93" /><path
                   d="M 362.117,25.203 380.508,2.332 h 8.316 v 0.535 c -1.664,1.223 -2.058,2.254 -2.058,4.391 v 20.047 c 0,1.793 0.425,3.054 2.058,4.39 v 0.535 h -7.988 v -0.535 c 1.598,-1.336 2.019,-2.597 2.019,-4.39 V 9.359 l -18.39,22.871 h -8.281 v -0.535 c 1.597,-1.336 1.988,-2.254 2.054,-4.39 V 7.258 c 0,-1.793 -0.457,-3.055 -2.054,-4.391 V 2.332 h 7.988 v 0.535 c -1.629,1.336 -2.055,2.598 -2.055,4.391 z"
                   style="fill:#15569c;fill-opacity:1;fill-rule:nonzero;stroke:none"
                   id="path95" /><path
                   d="m 415.992,8.402 c -2.347,-1.984 -4.535,-1.945 -6.523,-1.945 h -8.934 l -0.031,20.848 c 0,1.832 0.457,3.09 2.055,4.39 v 0.535 h -9.782 v -0.535 c 1.563,-1.3 2.055,-2.597 2.055,-4.39 V 7.258 c 0,-1.797 -0.461,-3.055 -2.055,-4.391 V 2.332 h 16.922 c 1.239,0 2.77,0.152 3.489,-1.336 h 0.355 l 2.742,7.219 z"
                   style="fill:#15569c;fill-opacity:1;fill-rule:nonzero;stroke:none"
                   id="path97" /><path
                   d="m 435.77,32.23 h -6.161 v -0.535 c 0.649,-0.761 0.746,-1.261 -0.656,-4.355 L 418.781,6.227 C 417.578,3.746 416.727,3.098 415.52,2.863 V 2.332 h 8.382 v 0.531 c -1.793,0.535 -1.336,2.524 -0.488,4.356 l 1.531,3.246 h 15.844 l 1.824,-3.36 c 1.047,-1.91 1.602,-3.628 -0.293,-4.242 V 2.332 h 10.598 v 0.531 c -1.434,0.27 -2.414,2.258 -3.227,3.785 z m -9.098,-18.214 5.738,11.796 6.457,-11.796 z"
                   style="fill:#15569c;fill-opacity:1;fill-rule:nonzero;stroke:none"
                   id="path99" /><path
                   d="M 460.68,25.203 479.07,2.332 h 8.313 v 0.535 c -1.664,1.223 -2.055,2.254 -2.055,4.391 v 20.047 c 0,1.793 0.426,3.054 2.055,4.39 v 0.535 h -7.988 v -0.535 c 1.597,-1.336 2.023,-2.597 2.023,-4.39 V 9.359 L 463.027,32.23 h -8.281 v -0.535 c 1.598,-1.336 1.988,-2.254 2.055,-4.39 V 7.258 c 0,-1.793 -0.457,-3.055 -2.055,-4.391 V 2.332 h 7.988 v 0.535 c -1.629,1.336 -2.054,2.598 -2.054,4.391 z"
                   style="fill:#15569c;fill-opacity:1;fill-rule:nonzero;stroke:none"
                   id="path101" /><path
                   d="m 499.129,6.457 v 21.648 h 4.305 c 3.554,0 6.847,-0.496 9.261,-4.734 1.758,-3.094 1.793,-8.898 0.032,-12.371 -2.446,-4.734 -6.586,-4.543 -10.11,-4.543 z m -7.793,25.773 v -0.535 c 1.566,-1.3 2.055,-2.597 2.055,-4.39 V 7.258 c 0,-1.793 -0.457,-3.055 -2.055,-4.391 V 2.332 h 14.285 c 4.301,0 9.844,1.106 12.977,7.18 2.445,4.695 2.086,11.109 0.226,14.968 -2.933,6.106 -8.543,7.75 -12.976,7.75 z"
                   style="fill:#15569c;fill-opacity:1;fill-rule:nonzero;stroke:none"
                   id="path103" /></g></g></g></g></g></g><g
       id="g115088"
       transform="translate(44.089962,-44.036339)"><g
         id="g105"
         transform="matrix(1.0928863,0,0,1.0928863,-397.27183,1179.6622)"><path
           d="m 1.148,246.129 32.516,92.269 H 61.785 L 94.297,246.129 H 70.57 l -5.273,15.82 H 30.148 l -5.273,-15.82 z m 35.153,34.711 11.422,32.515 11.425,-32.515 z"
           style="fill:#000000;fill-opacity:1;fill-rule:evenodd;stroke:none"
           id="path107" /><path
           d="m 107.477,246.129 h 20.652 V 267 h -20.652 z m 20.652,28.562 h -20.652 v 1.754 c 0,14.062 5.273,19.336 14.062,24.168 6.149,3.074 8.785,6.152 8.785,11.422 0,6.152 -4.832,9.668 -12.301,9.668 -7.91,0 -13.621,-3.516 -13.621,-11.863 h -21.09 v 2.636 c 0,17.574 15.379,27.68 34.711,27.68 20.649,0 34.711,-9.668 34.711,-27.68 -0.879,-11.426 -7.91,-17.574 -14.5,-22.41 -7.468,-5.269 -10.105,-7.906 -10.105,-14.937 z"
           style="fill:#6639b7;fill-opacity:1;fill-rule:nonzero;stroke:none"
           id="path109" /><path
           d="m 9.367,213.793 0.785,-2.914 h 3.739 L 9.242,225.39 H 5.125 L 0,210.879 h 3.582 l 0.922,2.914 z m -0.719,2.672 H 5.316 l 1.786,5.687 z m 9.512,1.613 c 0.137,0.851 0.746,1.265 1.871,1.265 1.035,0 1.657,-0.375 1.657,-0.98 0,-0.418 -0.243,-0.613 -0.95,-0.719 l -1.695,-0.285 c -2.973,-0.48 -4.223,-1.508 -4.223,-3.461 0,-1.976 1.559,-3.297 3.895,-3.297 1.277,0 2.004,0.258 3.058,1.102 0.11,-0.383 0.11,-0.449 0.243,-0.824 h 3.187 c -0.348,0.527 -0.394,0.671 -0.394,1.812 v 4.82 c 0,1.563 -0.282,2.399 -1.059,3.067 -0.832,0.75 -2.062,1.113 -3.672,1.113 -2.992,0 -4.512,-1.168 -4.707,-3.613 z m 3.613,-3.817 c -0.511,-0.882 -1.257,-1.312 -2.293,-1.312 -0.968,0 -1.578,0.414 -1.578,1.101 0,0.633 0.481,0.997 1.606,1.258 l 1.125,0.239 c 0.523,0.113 0.812,0.199 1.14,0.335 z m 8.829,11.129 h -3.129 v -14.511 h 3.129 z m 8.464,-4.129 h -1.91 v 3.325 h -3.129 v -3.325 h -1.488 v -2.187 h 1.488 v -4.785 c 0,-1.629 0.137,-2.192 0.621,-2.711 0.457,-0.5 1.145,-0.699 2.508,-0.699 h 1.91 v 2.328 h -1.125 c -0.726,0 -0.785,0.136 -0.785,1.785 v 4.082 h 1.91 z m 7.024,0.411 c -3.305,0 -5.641,-2.309 -5.641,-5.532 0,-3.258 2.336,-5.539 5.641,-5.539 3.273,0 5.656,2.281 5.656,5.453 0,3.328 -2.285,5.618 -5.656,5.618 m 0,-2.465 c 1.609,0 2.508,-1.11 2.508,-3.133 0,-1.899 -0.918,-3.02 -2.508,-3.02 -1.59,0 -2.488,1.121 -2.488,3.086 0,1.938 0.898,3.067 2.488,3.067 m 21.594,6.183 v -9.593 c 0,-0.989 -0.157,-1.418 -0.602,-1.832 -0.484,-0.411 -1.191,-0.641 -2.008,-0.641 -0.781,0 -1.492,0.23 -1.976,0.641 -0.434,0.414 -0.59,0.843 -0.59,1.832 v 9.593 h -3.301 v -9.816 c 0,-1.82 0.484,-2.981 1.578,-3.785 1.121,-0.805 2.625,-1.235 4.289,-1.235 1.696,0 3.199,0.43 4.321,1.235 1.097,0.804 1.582,1.965 1.582,3.785 v 9.816 z m 6.285,-4.008 v -10.503 h 3.129 v 5.894 c 0,0.91 0.105,1.352 0.464,1.734 0.329,0.375 0.813,0.567 1.336,0.567 0.555,0 1.016,-0.211 1.282,-0.602 0.258,-0.394 0.328,-0.808 0.328,-1.871 v -5.722 h 3.117 v 6.804 c 0,2.485 -1.402,4.008 -3.711,4.008 -1.102,0 -1.742,-0.277 -2.902,-1.324 v 1.015 z m 15.761,0 h -3.128 v -10.503 h 3.128 z m 0,4.008 h -3.128 v -2.547 h 3.128 z m 8.754,-14.511 3.614,10.503 h -3.352 l -1.074,-4.023 c -0.156,-0.633 -0.418,-1.832 -0.66,-3.031 -0.356,1.265 -0.617,2.293 -0.84,3.031 l -1.184,4.023 h -3.281 l 3.805,-10.503 z m 15.473,4.339 c 0,1.403 -0.156,2.34 -0.484,3.204 -0.778,2.101 -2.493,3.25 -4.778,3.25 -3.187,0 -5.433,-2.29 -5.433,-5.551 0,-3.305 2.179,-5.52 5.453,-5.52 2.539,0 4.515,1.305 5.105,3.336 h -3.168 c -0.433,-0.64 -1.007,-0.922 -1.851,-0.922 -1.336,0 -2.199,0.778 -2.391,2.203 z m -7.527,2.188 c 0.242,1.219 1.035,1.918 2.246,1.918 1.211,0 1.937,-0.699 2.062,-1.918 z m 9.773,3.976 v -10.503 h 3.121 v 2.953 c 0,2.05 0.114,3.027 0.414,3.726 0.36,0.778 1.242,1.258 2.317,1.258 0.222,0 0.414,-0.019 0.793,-0.059 v 2.915 c -2.266,0.019 -3.059,-0.461 -3.68,-2.157 l 0.086,1.867 z m 17.535,-3.152 c -0.261,2.223 -1.937,3.442 -4.66,3.442 -2.82,0 -4.535,-1.286 -4.535,-3.403 0,-1.668 0.902,-2.523 3.234,-3.019 l 1.93,-0.442 c 0.844,-0.191 1.191,-0.48 1.191,-0.957 0,-0.594 -0.66,-1.008 -1.628,-1.008 -1.25,0 -1.918,0.481 -2.09,1.446 h -2.926 c 0.172,-2.317 2.004,-3.688 4.949,-3.688 2.953,0 4.777,1.391 4.777,3.602 0,0.844 -0.281,1.633 -0.796,2.109 -0.454,0.481 -1.122,0.77 -2.411,1.028 l -1.968,0.41 c -0.989,0.222 -1.297,0.414 -1.297,0.808 0,0.516 0.601,0.871 1.5,0.871 1.039,0 1.668,-0.414 1.804,-1.199 z m 5.364,3.152 h -3.118 v -10.503 h 3.118 z m 0,4.008 h -3.118 v -2.547 h 3.118 z m 8.699,-4.129 h -1.918 v 3.325 h -3.117 v -3.325 h -1.504 v -2.187 h 1.504 v -4.785 c 0,-1.629 0.125,-2.192 0.609,-2.711 0.465,-0.5 1.145,-0.699 2.508,-0.699 h 1.918 v 2.328 h -1.121 c -0.727,0 -0.797,0.136 -0.797,1.785 v 4.082 h 1.918 z m 9,0.121 -1.387,-4.742 c -0.242,-0.941 -0.414,-1.648 -0.551,-2.351 l -0.136,0.414 c -0.243,0.871 -0.243,0.89 -0.539,1.871 l -1.571,4.808 h -3.344 l 3.497,-8.828 c 0.378,-0.91 0.398,-0.976 0.398,-1.351 0,-0.91 -0.504,-1.321 -1.609,-1.321 h -0.918 v -2.332 h 1.82 c 2.383,0 2.887,0.434 3.875,3.243 l 3.699,10.589 z"
           style="fill:#000000;fill-opacity:1;fill-rule:nonzero;stroke:none"
           id="path111" /><path
           d="m 12.66,198.855 c -0.125,1.235 -0.348,1.973 -0.781,2.672 -0.902,1.457 -2.625,2.195 -5.067,2.195 -3.691,0 -5.902,-1.675 -5.902,-4.484 0,-1.16 0.43,-2.207 1.176,-2.84 0.656,-0.562 1.625,-0.976 3.184,-1.351 l 2.664,-0.649 c 1.039,-0.262 1.589,-0.769 1.589,-1.488 0,-0.996 -1.035,-1.629 -2.73,-1.629 -2.008,0 -2.957,0.738 -3.012,2.394 H 0.477 c 0.019,-3.246 2.316,-5.117 6.265,-5.117 3.809,0 6.133,1.852 6.133,4.86 0,1.152 -0.359,2.089 -1.113,2.761 -0.7,0.653 -1.598,1.043 -3.235,1.438 l -2.965,0.672 c -0.902,0.218 -1.347,0.621 -1.347,1.234 0,0.914 0.949,1.477 2.508,1.477 1.656,0 2.644,-0.719 2.644,-1.907 v -0.238 z m 12.254,-3.242 c -0.203,2.504 -2.09,4.066 -4.863,4.066 -3.371,0 -5.395,-2.109 -5.395,-5.57 0,-3.375 2.043,-5.504 5.282,-5.504 2.816,0 4.667,1.496 5.113,4.152 l -3.043,0.153 c -0.242,-1.235 -0.86,-1.801 -1.977,-1.801 -1.449,0 -2.226,1.082 -2.226,3.086 0,1.918 0.777,2.992 2.199,2.992 1.035,0 1.762,-0.594 1.937,-1.574 z m 5.524,7.785 h -3.129 v -14.516 h 3.129 v 5.907 c 0,1.113 0.066,1.41 0.417,1.765 0.329,0.344 0.833,0.547 1.364,0.547 0.523,0 0.969,-0.203 1.23,-0.547 0.293,-0.375 0.36,-0.769 0.36,-1.765 v -5.907 h 3.117 v 6.473 c 0,1.59 -0.262,2.485 -0.938,3.223 -0.687,0.707 -1.676,1.117 -2.73,1.117 -1.106,0 -1.938,-0.371 -2.82,-1.188 z m 14.57,-3.719 c -3.305,0 -5.641,-2.3 -5.641,-5.523 0,-3.27 2.336,-5.551 5.641,-5.551 3.273,0 5.656,2.281 5.656,5.465 0,3.328 -2.297,5.609 -5.656,5.609 m 0,-2.457 c 1.605,0 2.508,-1.109 2.508,-3.132 0,-1.899 -0.93,-3.032 -2.508,-3.032 -1.59,0 -2.492,1.133 -2.492,3.098 0,1.937 0.902,3.066 2.492,3.066 m 13.203,2.457 c -3.305,0 -5.641,-2.3 -5.641,-5.523 0,-3.27 2.336,-5.551 5.641,-5.551 3.273,0 5.656,2.281 5.656,5.465 0,3.328 -2.297,5.609 -5.656,5.609 m 0,-2.457 c 1.605,0 2.508,-1.109 2.508,-3.132 0,-1.899 -0.93,-3.032 -2.508,-3.032 -1.59,0 -2.492,1.133 -2.492,3.098 0,1.937 0.902,3.066 2.492,3.066 m 11.215,6.176 h -3.117 v -14.516 h 3.117 z m 12.816,-3.719 c -3.304,0 -5.637,-2.3 -5.637,-5.523 0,-3.27 2.333,-5.551 5.637,-5.551 3.274,0 5.649,2.281 5.649,5.465 0,3.328 -2.286,5.609 -5.649,5.609 m 0,-2.457 c 1.598,0 2.508,-1.109 2.508,-3.132 0,-1.899 -0.93,-3.032 -2.508,-3.032 -1.59,0 -2.488,1.133 -2.488,3.098 0,1.937 0.898,3.066 2.488,3.066 m 13.531,2.043 H 93.75 v 0.739 c 0,0.605 0.367,0.941 1.094,0.941 h 0.929 v 2.453 h -1.711 c -2.316,0 -3.441,-1.113 -3.441,-3.375 v -0.758 h -1.473 v -2.164 h 1.473 v -8.219 h 3.129 v 8.219 h 2.023 z m 19.165,-0.41 c -0.129,1.235 -0.352,1.973 -0.786,2.672 -0.91,1.457 -2.625,2.195 -5.066,2.195 -3.703,0 -5.898,-1.675 -5.898,-4.484 0,-1.16 0.414,-2.207 1.171,-2.84 0.657,-0.562 1.625,-0.976 3.188,-1.351 l 2.664,-0.649 c 1.035,-0.262 1.578,-0.769 1.578,-1.488 0,-0.996 -1.027,-1.629 -2.723,-1.629 -2.007,0 -2.957,0.738 -3.011,2.394 h -3.305 c 0.02,-3.246 2.305,-5.117 6.266,-5.117 3.808,0 6.144,1.852 6.144,4.86 0,1.152 -0.379,2.089 -1.125,2.761 -0.699,0.653 -1.609,1.043 -3.234,1.438 l -2.965,0.672 c -0.91,0.218 -1.348,0.621 -1.348,1.234 0,0.914 0.95,1.477 2.512,1.477 1.645,0 2.645,-0.719 2.645,-1.907 v -0.238 z m 12.261,-3.242 c -0.203,2.504 -2.094,4.066 -4.863,4.066 -3.371,0 -5.395,-2.109 -5.395,-5.57 0,-3.375 2.043,-5.504 5.278,-5.504 2.82,0 4.672,1.496 5.105,4.152 l -3.031,0.153 c -0.242,-1.235 -0.863,-1.801 -1.984,-1.801 -1.454,0 -2.219,1.082 -2.219,3.086 0,1.918 0.765,2.992 2.199,2.992 1.035,0 1.762,-0.594 1.938,-1.574 z m 5.406,3.777 h -3.121 v -10.508 h 3.121 z m 0,4.008 h -3.121 v -2.543 h 3.121 z m 13.145,-10.16 c 0,1.398 -0.156,2.328 -0.484,3.199 -0.774,2.09 -2.489,3.242 -4.778,3.242 -3.195,0 -5.433,-2.281 -5.433,-5.543 0,-3.316 2.179,-5.531 5.453,-5.531 2.531,0 4.515,1.305 5.105,3.348 h -3.168 c -0.445,-0.653 -1.015,-0.93 -1.847,-0.93 -1.336,0 -2.2,0.785 -2.403,2.215 z m -7.527,2.184 c 0.242,1.218 1.039,1.918 2.25,1.918 1.199,0 1.925,-0.7 2.062,-1.918 z m 9.988,3.968 v -10.508 h 3.129 v 5.907 c 0,0.91 0.105,1.351 0.453,1.734 0.332,0.375 0.824,0.578 1.348,0.578 0.55,0 1.007,-0.222 1.277,-0.613 0.262,-0.395 0.332,-0.809 0.332,-1.871 v -5.735 h 3.117 v 6.817 c 0,2.484 -1.402,3.996 -3.719,3.996 -1.093,0 -1.734,-0.277 -2.894,-1.309 v 1.004 z m 22.25,-3.777 c -0.203,2.504 -2.094,4.066 -4.863,4.066 -3.371,0 -5.395,-2.109 -5.395,-5.57 0,-3.375 2.043,-5.504 5.277,-5.504 2.821,0 4.672,1.496 5.106,4.152 l -3.031,0.153 c -0.243,-1.235 -0.864,-1.801 -1.977,-1.801 -1.453,0 -2.226,1.082 -2.226,3.086 0,1.918 0.773,2.992 2.199,2.992 1.035,0 1.761,-0.594 1.937,-1.574 z m 12.457,-2.375 c 0,1.398 -0.152,2.328 -0.484,3.199 -0.774,2.09 -2.489,3.242 -4.774,3.242 -3.199,0 -5.437,-2.281 -5.437,-5.543 0,-3.316 2.172,-5.531 5.457,-5.531 2.527,0 4.511,1.305 5.101,3.348 h -3.164 c -0.449,-0.653 -1.019,-0.93 -1.851,-0.93 -1.348,0 -2.2,0.785 -2.403,2.215 z m -7.527,2.184 c 0.242,1.218 1.027,1.918 2.238,1.918 1.211,0 1.937,-0.7 2.074,-1.918 z"
           style="fill:#928b81;fill-opacity:1;fill-rule:nonzero;stroke:none"
           id="path113" /></g><g
         id="g115"
         transform="matrix(1.0928892,0,0,1.0928892,-361.90202,1179.6613)"><g
           id="g117"
           clip-path="url(#clipPath121)"><g
             id="g123"
             transform="matrix(309.38284,0,0,151.59759,210.94214,188.55832)" /></g></g></g></g></svg>
